<svg xmlns="http://www.w3.org/2000/svg" xmlns:xlink="http://www.w3.org/1999/xlink" width="243" height="244" viewBox="0 0 243 244">
  <defs>
    <rect id="api-a" width="243" height="243" x="0" y="0"/>
  </defs>
  <g fill="none" fill-rule="evenodd" transform="translate(0 .27)">
    <rect width="243" height="243" fill="#FCAC14"/>
    <mask id="api-b" fill="#fff">
      <use xlink:href="#api-a"/>
    </mask>
    <use fill="#F83E0D" xlink:href="#api-a"/>
    <path fill="#FF6E48" fill-rule="nonzero" d="M121.5,1.17671301 L263.221009,280.189949 L222.778991,300.731926 L170.311991,197.436713 L72.6879913,197.436713 L20.2210087,300.731926 L-20.2210087,280.189949 L121.5,1.17671301 Z M121.5,101.339 L95.8309913,151.874713 L147.168991,151.874713 L121.5,101.339 Z" mask="url(#api-b)"/>
    <path fill="#FFF" fill-rule="nonzero" d="M14.823,24.26 C14.9526,24.26 15.0498,24.2114 15.0984,24.0656 L15.6492,22.397 L19.926,22.397 L20.4768,24.0656 C20.5254,24.2114 20.6226,24.26 20.7522,24.26 L22.6638,24.26 C22.842,24.26 22.9392,24.1466 22.8744,23.9846 L19.0836,13.1144 C19.035,12.9848 18.9054,12.92 18.7758,12.92 L16.8156,12.92 C16.686,12.92 16.5564,12.9848 16.5078,13.1144 L12.717,23.9846 C12.6522,24.1466 12.7332,24.26 12.9114,24.26 L14.823,24.26 Z M19.2618,20.3396 L16.3134,20.3396 L17.7876,15.836 L19.2618,20.3396 Z M26.6328,24.26 C26.7786,24.26 26.8758,24.1628 26.8758,24.017 L26.8758,20.291 L28.2204,20.291 C30.9096,20.291 32.2056,18.7844 32.2056,16.5974 C32.2056,14.4266 30.9096,12.92 28.2204,12.92 L24.8022,12.92 C24.6564,12.92 24.5592,13.0172 24.5592,13.163 L24.5592,24.017 C24.5592,24.1628 24.6564,24.26 24.8022,24.26 L26.6328,24.26 Z M28.1394,18.2336 L26.8758,18.2336 L26.8758,14.9774 L28.1394,14.9774 C29.1276,14.9774 29.9862,15.3176 29.9862,16.5974 C29.9862,17.8934 29.1276,18.2336 28.1394,18.2336 Z M36.0288,24.26 C36.1746,24.26 36.2718,24.1628 36.2718,24.017 L36.2718,13.163 C36.2718,13.0172 36.1746,12.92 36.0288,12.92 L34.1982,12.92 C34.0524,12.92 33.9552,13.0172 33.9552,13.163 L33.9552,24.017 C33.9552,24.1628 34.0524,24.26 34.1982,24.26 L36.0288,24.26 Z M41.067,24.4544 C42.6546,24.4544 44.0316,23.6282 44.0478,22.0244 C44.064,20.8094 43.2702,20.129 42.2658,19.724 L41.148,19.2866 C40.7106,19.1246 40.3866,18.8978 40.3866,18.509 C40.3866,18.1688 40.6296,17.8772 41.148,17.8772 C41.6178,17.8772 42.0714,18.104 42.5898,18.5414 C42.7356,18.6548 42.849,18.671 42.9624,18.5414 L43.6752,17.6828 C43.7562,17.5856 43.7886,17.456 43.6914,17.3426 C43.0272,16.5488 42.0714,16.1276 41.0346,16.1276 C39.5604,16.1276 38.2644,17.0024 38.2644,18.5252 C38.2644,19.6268 38.9772,20.291 39.9978,20.696 L41.0022,21.101 C41.5854,21.344 41.8284,21.5384 41.8284,21.9272 C41.8284,22.3808 41.472,22.5914 40.9374,22.5914 C40.3218,22.5914 39.771,22.316 39.1068,21.8138 C38.9772,21.7166 38.8314,21.6842 38.7018,21.8786 L38.1348,22.6724 C38.0214,22.8506 38.0052,23.0288 38.1024,23.1422 C38.7342,23.8874 39.7386,24.4544 41.067,24.4544 Z"/>
  </g>
</svg>
