<svg xmlns="http://www.w3.org/2000/svg" xmlns:xlink="http://www.w3.org/1999/xlink" width="602" height="621" viewBox="0 0 602 621">
  <defs>
    <rect id="jam-a" width="243" height="243" x="0" y="0"/>
    <rect id="jam-c" width="243" height="243" x="0" y="0"/>
    <rect id="jam-e" width="243" height="243" x="0" y="0"/>
  </defs>
  <g fill="none" fill-rule="evenodd">
    <g transform="translate(358.5)">
      <rect width="243" height="243" fill="#FCAC14"/>
      <mask id="jam-b" fill="#fff">
        <use xlink:href="#jam-a"/>
      </mask>
      <use fill="#8B3BDB" xlink:href="#jam-a"/>
      <polygon fill="#A750FD" fill-rule="nonzero" points="-1.797 280.969 -1.797 -2.645 119.855 88.593 244.797 -1.642 244.797 280.969 199.437 280.969 199.437 87.071 119.348 144.914 43.562 88.074 43.563 280.969" mask="url(#jam-b)"/>
      <path fill="#FFF" fill-rule="nonzero" d="M13.9914,24.26 C14.1372,24.26 14.2344,24.1628 14.2344,24.017 L14.2344,17.2616 L14.445,17.9582 L16.8426,24.0656 C16.8912,24.1952 17.0046,24.26 17.1342,24.26 L18.7542,24.26 C18.8838,24.26 18.9972,24.1952 19.0458,24.0656 L21.4434,17.9582 L21.654,17.2616 L21.654,24.017 C21.654,24.1628 21.7512,24.26 21.897,24.26 L23.7276,24.26 C23.8734,24.26 23.9706,24.1628 23.9706,24.017 L23.9706,13.163 C23.9706,13.0172 23.8734,12.92 23.7276,12.92 L21.6054,12.92 C21.4758,12.92 21.3786,12.9686 21.33,13.082 L17.9442,21.587 L14.5584,13.082 C14.5098,12.9686 14.4126,12.92 14.283,12.92 L12.1608,12.92 C12.015,12.92 11.9178,13.0172 11.9178,13.163 L11.9178,24.017 C11.9178,24.1628 12.015,24.26 12.1608,24.26 L13.9914,24.26 Z M29.4138,24.4544 C30.5964,24.4544 31.455,23.9522 32.0058,23.1422 L32.0382,24.017 C32.0382,24.1628 32.1354,24.26 32.2812,24.26 L33.8526,24.26 C33.9984,24.26 34.1118,24.1628 34.1118,24.017 L34.1118,16.565 C34.1118,16.4192 34.0146,16.322 33.8688,16.322 L32.2812,16.322 C32.1354,16.322 32.0382,16.4192 32.0382,16.565 L32.0058,17.4398 C31.4712,16.6136 30.6126,16.1276 29.4138,16.1276 C27.1782,16.1276 25.6392,17.942 25.6392,20.291 C25.6392,22.6562 27.1782,24.4544 29.4138,24.4544 Z M29.8836,22.4132 C28.701,22.4132 27.8262,21.5708 27.8262,20.291 C27.8262,19.0274 28.701,18.1688 29.8836,18.1688 C31.0662,18.1688 31.8924,19.0112 31.8924,20.291 C31.8924,21.5708 31.0662,22.4132 29.8836,22.4132 Z M38.0322,24.26 C38.178,24.26 38.2752,24.1628 38.2752,24.017 L38.2752,20.048 C38.2752,18.914 38.8584,18.1526 39.96,18.1526 C40.1868,18.1526 40.365,18.185 40.5432,18.2336 C40.7538,18.2822 40.8672,18.2336 40.8672,18.0392 L40.8672,16.646 C40.8672,16.5002 40.8348,16.403 40.7214,16.322 C40.5918,16.2248 40.365,16.1276 39.9924,16.1276 C39.0528,16.1276 38.5506,16.7594 38.2752,17.6018 L38.2104,16.5812 C38.2104,16.3868 38.1132,16.322 37.9674,16.322 L36.2826,16.322 C36.1368,16.322 36.0396,16.4192 36.0396,16.565 L36.0396,24.017 C36.0396,24.1628 36.1368,24.26 36.2826,24.26 L38.0322,24.26 Z M44.3178,24.26 C44.4636,24.26 44.5608,24.1628 44.5608,24.017 L44.5608,22.3322 L45.549,21.2144 L47.6874,24.1142 C47.7684,24.2276 47.8494,24.26 47.979,24.26 L49.8582,24.26 C50.0526,24.26 50.1174,24.1304 50.004,23.9684 L46.8936,19.6754 L49.5828,16.6136 C49.7124,16.4516 49.6638,16.322 49.4532,16.322 L47.4606,16.322 C47.3472,16.322 47.25,16.3544 47.169,16.4516 L44.5608,19.5296 L44.5608,12.92 C44.5608,12.7742 44.4636,12.677 44.3178,12.677 L42.552,12.677 C42.4062,12.677 42.309,12.7742 42.309,12.92 L42.309,24.017 C42.309,24.1628 42.4062,24.26 42.552,24.26 L44.3178,24.26 Z M54.2808,24.4544 C55.4634,24.4544 56.2248,23.8712 56.6784,23.0612 L56.7432,24.0008 C56.7432,24.1952 56.8404,24.26 56.9862,24.26 L58.6548,24.26 C58.8006,24.26 58.914,24.1628 58.914,24.017 L58.914,16.565 C58.914,16.4192 58.8006,16.322 58.6548,16.322 L56.9214,16.322 C56.7756,16.322 56.6784,16.4192 56.6784,16.565 L56.6784,20.6798 C56.6784,21.7976 56.0628,22.397 55.1232,22.397 C54.1674,22.397 53.649,21.7976 53.649,20.6798 L53.649,16.565 C53.649,16.4192 53.5518,16.322 53.406,16.322 L51.6564,16.322 C51.5106,16.322 51.4134,16.4192 51.4134,16.565 L51.4134,21.182 C51.4134,23.2556 52.6122,24.4544 54.2808,24.4544 Z M62.8344,27.338 C62.9802,27.338 63.0774,27.2408 63.0774,27.095 L63.0774,23.3204 C63.6282,24.0332 64.4544,24.4544 65.5398,24.4544 C67.7592,24.4544 69.2982,22.6562 69.2982,20.291 C69.2982,17.942 67.7592,16.1276 65.5398,16.1276 C64.3248,16.1276 63.4824,16.6136 62.9478,17.4398 L62.9154,16.565 C62.9154,16.4192 62.8182,16.322 62.6724,16.322 L61.0686,16.322 C60.9228,16.322 60.8256,16.4192 60.8256,16.565 L60.8256,27.095 C60.8256,27.2408 60.9228,27.338 61.0686,27.338 L62.8344,27.338 Z M65.07,22.4132 C63.8712,22.4132 63.045,21.5708 63.045,20.291 C63.045,19.0112 63.8712,18.1688 65.07,18.1688 C66.2364,18.1688 67.1112,19.0274 67.1112,20.291 C67.1112,21.5708 66.2364,22.4132 65.07,22.4132 Z"/>
    </g>
    <rect width="243" height="243" x="49.5" y="68.73" fill="#2D2D2D" opacity=".5"/>
    <rect width="243" height="243" x="292.5" y="310.23" fill="#2D2D2D" opacity=".5"/>
    <g transform="translate(171 189.27)">
      <rect width="243" height="243" fill="#FCAC14"/>
      <mask id="jam-d" fill="#fff">
        <use xlink:href="#jam-c"/>
      </mask>
      <use fill="#F83E0D" xlink:href="#jam-c"/>
      <path fill="#FF6E48" fill-rule="nonzero" d="M121.5,1.17671301 L263.221009,280.189949 L222.778991,300.731926 L170.311991,197.436713 L72.6879913,197.436713 L20.2210087,300.731926 L-20.2210087,280.189949 L121.5,1.17671301 Z M121.5,101.339 L95.8309913,151.874713 L147.168991,151.874713 L121.5,101.339 Z" mask="url(#jam-d)"/>
      <path fill="#FFF" fill-rule="nonzero" d="M14.823,24.26 C14.9526,24.26 15.0498,24.2114 15.0984,24.0656 L15.6492,22.397 L19.926,22.397 L20.4768,24.0656 C20.5254,24.2114 20.6226,24.26 20.7522,24.26 L22.6638,24.26 C22.842,24.26 22.9392,24.1466 22.8744,23.9846 L19.0836,13.1144 C19.035,12.9848 18.9054,12.92 18.7758,12.92 L16.8156,12.92 C16.686,12.92 16.5564,12.9848 16.5078,13.1144 L12.717,23.9846 C12.6522,24.1466 12.7332,24.26 12.9114,24.26 L14.823,24.26 Z M19.2618,20.3396 L16.3134,20.3396 L17.7876,15.836 L19.2618,20.3396 Z M26.6328,24.26 C26.7786,24.26 26.8758,24.1628 26.8758,24.017 L26.8758,20.291 L28.2204,20.291 C30.9096,20.291 32.2056,18.7844 32.2056,16.5974 C32.2056,14.4266 30.9096,12.92 28.2204,12.92 L24.8022,12.92 C24.6564,12.92 24.5592,13.0172 24.5592,13.163 L24.5592,24.017 C24.5592,24.1628 24.6564,24.26 24.8022,24.26 L26.6328,24.26 Z M28.1394,18.2336 L26.8758,18.2336 L26.8758,14.9774 L28.1394,14.9774 C29.1276,14.9774 29.9862,15.3176 29.9862,16.5974 C29.9862,17.8934 29.1276,18.2336 28.1394,18.2336 Z M36.0288,24.26 C36.1746,24.26 36.2718,24.1628 36.2718,24.017 L36.2718,13.163 C36.2718,13.0172 36.1746,12.92 36.0288,12.92 L34.1982,12.92 C34.0524,12.92 33.9552,13.0172 33.9552,13.163 L33.9552,24.017 C33.9552,24.1628 34.0524,24.26 34.1982,24.26 L36.0288,24.26 Z M41.067,24.4544 C42.6546,24.4544 44.0316,23.6282 44.0478,22.0244 C44.064,20.8094 43.2702,20.129 42.2658,19.724 L41.148,19.2866 C40.7106,19.1246 40.3866,18.8978 40.3866,18.509 C40.3866,18.1688 40.6296,17.8772 41.148,17.8772 C41.6178,17.8772 42.0714,18.104 42.5898,18.5414 C42.7356,18.6548 42.849,18.671 42.9624,18.5414 L43.6752,17.6828 C43.7562,17.5856 43.7886,17.456 43.6914,17.3426 C43.0272,16.5488 42.0714,16.1276 41.0346,16.1276 C39.5604,16.1276 38.2644,17.0024 38.2644,18.5252 C38.2644,19.6268 38.9772,20.291 39.9978,20.696 L41.0022,21.101 C41.5854,21.344 41.8284,21.5384 41.8284,21.9272 C41.8284,22.3808 41.472,22.5914 40.9374,22.5914 C40.3218,22.5914 39.771,22.316 39.1068,21.8138 C38.9772,21.7166 38.8314,21.6842 38.7018,21.8786 L38.1348,22.6724 C38.0214,22.8506 38.0052,23.0288 38.1024,23.1422 C38.7342,23.8874 39.7386,24.4544 41.067,24.4544 Z"/>
    </g>
    <g transform="translate(0 376.5)">
      <rect width="243" height="243" fill="#FCAC14"/>
      <use fill="#FCAC14" xlink:href="#jam-e"/>
      <path fill="#FFCE72" fill-rule="nonzero" d="M197.4375,121.5 L197.43725,45.562 L121.5,45.5625 L121.5,3.55271368e-15 L243,3.55271368e-15 L243,121.5 L242.89875,121.5 C242.89875,188.546678 188.546678,242.89875 121.5,242.89875 C55.1237885,242.89875 1.1895609,189.628284 0.117513964,123.50755 L0.10125,121.5 L45.46125,121.5 C45.46125,163.495042 79.504958,197.53875 121.5,197.53875 C163.075092,197.53875 196.857081,164.172512 197.528563,122.75744 L197.53875,121.5 L197.4375,121.5 Z"/>
      <path fill="#FFF" fill-rule="nonzero" d="M14.5746,24.4706 C16.875,24.4706 18.5436,22.9964 18.5436,19.9508 L18.5436,13.163 C18.5436,13.0172 18.4464,12.92 18.3006,12.92 L16.47,12.92 C16.3242,12.92 16.227,13.0172 16.227,13.163 L16.227,20.048 C16.227,21.6032 15.5304,22.2026 14.4936,22.2026 C13.6674,22.2026 13.2138,21.8138 12.8898,21.5546 C12.7764,21.4574 12.6306,21.4736 12.5496,21.5708 L11.5938,22.8344 C11.5128,22.9478 11.5128,23.126 11.61,23.2394 C12.1446,23.8712 13.1166,24.4706 14.5746,24.4706 Z M23.9868,24.4544 C25.1694,24.4544 26.028,23.9522 26.5788,23.1422 L26.6112,24.017 C26.6112,24.1628 26.7084,24.26 26.8542,24.26 L28.4256,24.26 C28.5714,24.26 28.6848,24.1628 28.6848,24.017 L28.6848,16.565 C28.6848,16.4192 28.5876,16.322 28.4418,16.322 L26.8542,16.322 C26.7084,16.322 26.6112,16.4192 26.6112,16.565 L26.5788,17.4398 C26.0442,16.6136 25.1856,16.1276 23.9868,16.1276 C21.7512,16.1276 20.2122,17.942 20.2122,20.291 C20.2122,22.6562 21.7512,24.4544 23.9868,24.4544 Z M24.4566,22.4132 C23.274,22.4132 22.3992,21.5708 22.3992,20.291 C22.3992,19.0274 23.274,18.1688 24.4566,18.1688 C25.6392,18.1688 26.4654,19.0112 26.4654,20.291 C26.4654,21.5708 25.6392,22.4132 24.4566,22.4132 Z M35.1648,24.26 C35.2944,24.26 35.4078,24.1952 35.4564,24.0656 L38.421,16.5974 C38.4858,16.4192 38.4048,16.322 38.2266,16.322 L36.4446,16.322 C36.315,16.322 36.2016,16.3868 36.153,16.5164 L34.29,21.6842 L32.4108,16.5164 C32.3622,16.3868 32.2488,16.322 32.1192,16.322 L30.3372,16.322 C30.159,16.322 30.078,16.4192 30.1428,16.5974 L33.1074,24.0656 C33.156,24.1952 33.2694,24.26 33.399,24.26 L35.1648,24.26 Z M43.2324,24.4544 C44.415,24.4544 45.2736,23.9522 45.8244,23.1422 L45.8568,24.017 C45.8568,24.1628 45.954,24.26 46.0998,24.26 L47.6712,24.26 C47.817,24.26 47.9304,24.1628 47.9304,24.017 L47.9304,16.565 C47.9304,16.4192 47.8332,16.322 47.6874,16.322 L46.0998,16.322 C45.954,16.322 45.8568,16.4192 45.8568,16.565 L45.8244,17.4398 C45.2898,16.6136 44.4312,16.1276 43.2324,16.1276 C40.9968,16.1276 39.4578,17.942 39.4578,20.291 C39.4578,22.6562 40.9968,24.4544 43.2324,24.4544 Z M43.7022,22.4132 C42.5196,22.4132 41.6448,21.5708 41.6448,20.291 C41.6448,19.0274 42.5196,18.1688 43.7022,18.1688 C44.8848,18.1688 45.711,19.0112 45.711,20.291 C45.711,21.5708 44.8848,22.4132 43.7022,22.4132 Z M53.3736,24.4544 C55.3014,24.4544 57.1644,23.4014 57.1644,21.1172 C57.1644,19.2056 55.8684,18.4442 54.6372,17.861 L53.4708,17.3264 C52.596,16.9214 52.1424,16.6622 52.1424,15.998 C52.1424,15.3176 52.6608,14.9126 53.487,14.9126 C54.1998,14.9126 54.7668,15.2204 55.4634,15.836 C55.593,15.9332 55.7226,15.9008 55.8198,15.7712 L56.7432,14.6534 C56.8404,14.5238 56.8404,14.3942 56.727,14.2808 C55.836,13.325 54.7506,12.7904 53.406,12.7904 C51.4782,12.7904 49.9068,13.9244 49.9068,15.9818 C49.9068,17.6666 50.976,18.5252 52.1748,19.076 L53.5518,19.724 C54.3456,20.0804 54.9126,20.3558 54.9126,21.1172 C54.9126,21.9272 54.2808,22.3322 53.325,22.3322 C52.4016,22.3322 51.7536,21.9434 51.0408,21.2144 C50.9112,21.101 50.7816,21.1172 50.6682,21.2468 L49.7286,22.3322 C49.6152,22.4618 49.6152,22.5752 49.6962,22.6886 C50.3604,23.5958 51.6078,24.4544 53.3736,24.4544 Z M62.64,24.4544 C63.9198,24.4544 65.0052,23.9036 65.6856,23.0288 C65.7828,22.9154 65.7504,22.7858 65.6532,22.6886 L64.6812,21.7328 C64.5516,21.6032 64.3734,21.6194 64.26,21.7328 C63.8226,22.1702 63.3528,22.397 62.7372,22.397 C61.425,22.397 60.5988,21.425 60.5988,20.2586 C60.5988,19.0922 61.425,18.185 62.6886,18.185 C63.3366,18.185 63.8064,18.4118 64.2438,18.8492 C64.3572,18.9626 64.5354,18.9788 64.665,18.8492 L65.637,17.8934 C65.7342,17.7962 65.7666,17.6666 65.6694,17.5532 C64.989,16.6784 63.9036,16.1276 62.5914,16.1276 C60.21,16.1276 58.4442,17.9096 58.4442,20.2586 C58.4442,22.64 60.2262,24.4544 62.64,24.4544 Z M69.2496,24.26 C69.3954,24.26 69.4926,24.1628 69.4926,24.017 L69.4926,20.048 C69.4926,18.914 70.0758,18.1526 71.1774,18.1526 C71.4042,18.1526 71.5824,18.185 71.7606,18.2336 C71.9712,18.2822 72.0846,18.2336 72.0846,18.0392 L72.0846,16.646 C72.0846,16.5002 72.0522,16.403 71.9388,16.322 C71.8092,16.2248 71.5824,16.1276 71.2098,16.1276 C70.2702,16.1276 69.768,16.7594 69.4926,17.6018 L69.4278,16.5812 C69.4278,16.3868 69.3306,16.322 69.1848,16.322 L67.5,16.322 C67.3542,16.322 67.257,16.4192 67.257,16.565 L67.257,24.017 C67.257,24.1628 67.3542,24.26 67.5,24.26 L69.2496,24.26 Z M74.6766,14.9126 C75.3894,14.9126 75.9078,14.3618 75.9078,13.6652 C75.9078,12.9848 75.3894,12.434 74.6766,12.434 C73.9638,12.434 73.4292,12.9848 73.4292,13.6652 C73.4292,14.3618 73.9638,14.9126 74.6766,14.9126 Z M75.5514,24.26 C75.6972,24.26 75.7944,24.1628 75.7944,24.017 L75.7944,16.565 C75.7944,16.4192 75.6972,16.322 75.5514,16.322 L73.7856,16.322 C73.6398,16.322 73.5426,16.4192 73.5426,16.565 L73.5426,24.017 C73.5426,24.1628 73.6398,24.26 73.7856,24.26 L75.5514,24.26 Z M79.7472,27.338 C79.893,27.338 79.9902,27.2408 79.9902,27.095 L79.9902,23.3204 C80.541,24.0332 81.3672,24.4544 82.4526,24.4544 C84.672,24.4544 86.211,22.6562 86.211,20.291 C86.211,17.942 84.672,16.1276 82.4526,16.1276 C81.2376,16.1276 80.3952,16.6136 79.8606,17.4398 L79.8282,16.565 C79.8282,16.4192 79.731,16.322 79.5852,16.322 L77.9814,16.322 C77.8356,16.322 77.7384,16.4192 77.7384,16.565 L77.7384,27.095 C77.7384,27.2408 77.8356,27.338 77.9814,27.338 L79.7472,27.338 Z M81.9828,22.4132 C80.784,22.4132 79.9578,21.5708 79.9578,20.291 C79.9578,19.0112 80.784,18.1688 81.9828,18.1688 C83.1492,18.1688 84.024,19.0274 84.024,20.291 C84.024,21.5708 83.1492,22.4132 81.9828,22.4132 Z M90.8928,24.4544 C91.4274,24.4544 92.2374,24.3572 92.2374,23.9846 L92.2374,22.802 C92.2374,22.64 92.124,22.559 91.9458,22.5752 C91.7514,22.5914 91.5894,22.5914 91.4436,22.5914 C91.0224,22.5914 90.747,22.3646 90.747,21.8948 L90.747,18.0554 L91.9944,18.0554 C92.1402,18.0554 92.2374,17.9582 92.2374,17.8124 L92.2374,16.565 C92.2374,16.4192 92.1402,16.322 91.9944,16.322 L90.747,16.322 L90.747,14.459 C90.747,14.3132 90.6498,14.216 90.504,14.216 L88.7382,14.216 C88.5924,14.216 88.4952,14.3132 88.4952,14.459 L88.4952,16.322 L87.4908,16.322 C87.345,16.322 87.2478,16.4192 87.2478,16.565 L87.2478,17.8124 C87.2478,17.9582 87.345,18.0554 87.4908,18.0554 L88.4952,18.0554 L88.4952,22.1378 C88.4952,23.8712 89.6292,24.4544 90.8928,24.4544 Z"/>
    </g>
  </g>
</svg>
