<svg xmlns="http://www.w3.org/2000/svg" xmlns:xlink="http://www.w3.org/1999/xlink" width="602" height="620" viewBox="0 0 602 620">
  <defs>
    <rect id="markup-box-a" width="243" height="243" x="0" y="0"/>
  </defs>
  <g fill="none" fill-rule="evenodd" transform="translate(358.5)">
    <rect width="243" height="243" fill="#FCAC14"/>
    <mask id="markup-box-b" fill="#fff">
      <use xlink:href="#markup-box-a"/>
    </mask>
    <use fill="#8B3BDB" xlink:href="#markup-box-a"/>
    <polygon fill="#A750FD" fill-rule="nonzero" points="-1.797 280.969 -1.797 -2.645 119.855 88.593 244.797 -1.642 244.797 280.969 199.437 280.969 199.437 87.071 119.348 144.914 43.562 88.074 43.563 280.969" mask="url(#markup-box-b)"/>
    <path fill="#FFF" fill-rule="nonzero" d="M13.9914,24.26 C14.1372,24.26 14.2344,24.1628 14.2344,24.017 L14.2344,17.2616 L14.445,17.9582 L16.8426,24.0656 C16.8912,24.1952 17.0046,24.26 17.1342,24.26 L18.7542,24.26 C18.8838,24.26 18.9972,24.1952 19.0458,24.0656 L21.4434,17.9582 L21.654,17.2616 L21.654,24.017 C21.654,24.1628 21.7512,24.26 21.897,24.26 L23.7276,24.26 C23.8734,24.26 23.9706,24.1628 23.9706,24.017 L23.9706,13.163 C23.9706,13.0172 23.8734,12.92 23.7276,12.92 L21.6054,12.92 C21.4758,12.92 21.3786,12.9686 21.33,13.082 L17.9442,21.587 L14.5584,13.082 C14.5098,12.9686 14.4126,12.92 14.283,12.92 L12.1608,12.92 C12.015,12.92 11.9178,13.0172 11.9178,13.163 L11.9178,24.017 C11.9178,24.1628 12.015,24.26 12.1608,24.26 L13.9914,24.26 Z M29.4138,24.4544 C30.5964,24.4544 31.455,23.9522 32.0058,23.1422 L32.0382,24.017 C32.0382,24.1628 32.1354,24.26 32.2812,24.26 L33.8526,24.26 C33.9984,24.26 34.1118,24.1628 34.1118,24.017 L34.1118,16.565 C34.1118,16.4192 34.0146,16.322 33.8688,16.322 L32.2812,16.322 C32.1354,16.322 32.0382,16.4192 32.0382,16.565 L32.0058,17.4398 C31.4712,16.6136 30.6126,16.1276 29.4138,16.1276 C27.1782,16.1276 25.6392,17.942 25.6392,20.291 C25.6392,22.6562 27.1782,24.4544 29.4138,24.4544 Z M29.8836,22.4132 C28.701,22.4132 27.8262,21.5708 27.8262,20.291 C27.8262,19.0274 28.701,18.1688 29.8836,18.1688 C31.0662,18.1688 31.8924,19.0112 31.8924,20.291 C31.8924,21.5708 31.0662,22.4132 29.8836,22.4132 Z M38.0322,24.26 C38.178,24.26 38.2752,24.1628 38.2752,24.017 L38.2752,20.048 C38.2752,18.914 38.8584,18.1526 39.96,18.1526 C40.1868,18.1526 40.365,18.185 40.5432,18.2336 C40.7538,18.2822 40.8672,18.2336 40.8672,18.0392 L40.8672,16.646 C40.8672,16.5002 40.8348,16.403 40.7214,16.322 C40.5918,16.2248 40.365,16.1276 39.9924,16.1276 C39.0528,16.1276 38.5506,16.7594 38.2752,17.6018 L38.2104,16.5812 C38.2104,16.3868 38.1132,16.322 37.9674,16.322 L36.2826,16.322 C36.1368,16.322 36.0396,16.4192 36.0396,16.565 L36.0396,24.017 C36.0396,24.1628 36.1368,24.26 36.2826,24.26 L38.0322,24.26 Z M44.3178,24.26 C44.4636,24.26 44.5608,24.1628 44.5608,24.017 L44.5608,22.3322 L45.549,21.2144 L47.6874,24.1142 C47.7684,24.2276 47.8494,24.26 47.979,24.26 L49.8582,24.26 C50.0526,24.26 50.1174,24.1304 50.004,23.9684 L46.8936,19.6754 L49.5828,16.6136 C49.7124,16.4516 49.6638,16.322 49.4532,16.322 L47.4606,16.322 C47.3472,16.322 47.25,16.3544 47.169,16.4516 L44.5608,19.5296 L44.5608,12.92 C44.5608,12.7742 44.4636,12.677 44.3178,12.677 L42.552,12.677 C42.4062,12.677 42.309,12.7742 42.309,12.92 L42.309,24.017 C42.309,24.1628 42.4062,24.26 42.552,24.26 L44.3178,24.26 Z M54.2808,24.4544 C55.4634,24.4544 56.2248,23.8712 56.6784,23.0612 L56.7432,24.0008 C56.7432,24.1952 56.8404,24.26 56.9862,24.26 L58.6548,24.26 C58.8006,24.26 58.914,24.1628 58.914,24.017 L58.914,16.565 C58.914,16.4192 58.8006,16.322 58.6548,16.322 L56.9214,16.322 C56.7756,16.322 56.6784,16.4192 56.6784,16.565 L56.6784,20.6798 C56.6784,21.7976 56.0628,22.397 55.1232,22.397 C54.1674,22.397 53.649,21.7976 53.649,20.6798 L53.649,16.565 C53.649,16.4192 53.5518,16.322 53.406,16.322 L51.6564,16.322 C51.5106,16.322 51.4134,16.4192 51.4134,16.565 L51.4134,21.182 C51.4134,23.2556 52.6122,24.4544 54.2808,24.4544 Z M62.8344,27.338 C62.9802,27.338 63.0774,27.2408 63.0774,27.095 L63.0774,23.3204 C63.6282,24.0332 64.4544,24.4544 65.5398,24.4544 C67.7592,24.4544 69.2982,22.6562 69.2982,20.291 C69.2982,17.942 67.7592,16.1276 65.5398,16.1276 C64.3248,16.1276 63.4824,16.6136 62.9478,17.4398 L62.9154,16.565 C62.9154,16.4192 62.8182,16.322 62.6724,16.322 L61.0686,16.322 C60.9228,16.322 60.8256,16.4192 60.8256,16.565 L60.8256,27.095 C60.8256,27.2408 60.9228,27.338 61.0686,27.338 L62.8344,27.338 Z M65.07,22.4132 C63.8712,22.4132 63.045,21.5708 63.045,20.291 C63.045,19.0112 63.8712,18.1688 65.07,18.1688 C66.2364,18.1688 67.1112,19.0274 67.1112,20.291 C67.1112,21.5708 66.2364,22.4132 65.07,22.4132 Z"/>
  </g>
</svg>
