<svg xmlns="http://www.w3.org/2000/svg" width="135" height="49" viewBox="0 0 135 49">
  <g fill="none" transform="translate(.976 .55)">
    <path fill="#FFF"
      d="M5.62900604,21.84 C9.88900604,21.84 12.979006,19.11 12.979006,13.47 L12.979006,0.9 C12.979006,0.63 12.799006,0.45 12.529006,0.45 L9.13900604,0.45 C8.86900604,0.45 8.68900604,0.63 8.68900604,0.9 L8.68900604,13.65 C8.68900604,16.53 7.39900604,17.64 5.47900604,17.64 C3.94900604,17.64 3.10900604,16.92 2.50900604,16.44 C2.29900604,16.26 2.02900604,16.29 1.87900604,16.47 L0.109006035,18.81 C-0.0409939649,19.02 -0.0409939649,19.35 0.139006035,19.56 C1.12900604,20.73 2.92900604,21.84 5.62900604,21.84 Z M23.059006,21.81 C25.249006,21.81 26.839006,20.88 27.859006,19.38 L27.919006,21 C27.919006,21.27 28.099006,21.45 28.369006,21.45 L31.279006,21.45 C31.549006,21.45 31.759006,21.27 31.759006,21 L31.759006,7.2 C31.759006,6.93 31.579006,6.75 31.309006,6.75 L28.369006,6.75 C28.099006,6.75 27.919006,6.93 27.919006,7.2 L27.859006,8.82 C26.869006,7.29 25.279006,6.39 23.059006,6.39 C18.919006,6.39 16.069006,9.75 16.069006,14.1 C16.069006,18.48 18.919006,21.81 23.059006,21.81 Z M23.929006,18.03 C21.739006,18.03 20.119006,16.47 20.119006,14.1 C20.119006,11.76 21.739006,10.17 23.929006,10.17 C26.119006,10.17 27.649006,11.73 27.649006,14.1 C27.649006,16.47 26.119006,18.03 23.929006,18.03 Z M39.019006,21.45 C39.289006,21.45 39.469006,21.27 39.469006,21 L39.469006,13.29 C39.469006,11.28 40.369006,10.2 41.929006,10.2 C43.519006,10.2 44.269006,11.28 44.269006,13.29 L44.269006,21 C44.269006,21.27 44.449006,21.45 44.749006,21.45 L47.959006,21.45 C48.229006,21.45 48.409006,21.27 48.409006,21 L48.409006,13.29 C48.409006,11.28 49.309006,10.2 50.869006,10.2 C52.489006,10.2 53.209006,11.28 53.209006,13.29 L53.209006,21 C53.209006,21.27 53.389006,21.45 53.659006,21.45 L56.899006,21.45 C57.169006,21.45 57.349006,21.27 57.349006,21 L57.349006,12.39 C57.349006,8.55 55.429006,6.39 52.279006,6.39 C49.999006,6.39 48.559006,7.5 47.749006,9 C46.939006,7.29 45.469006,6.39 43.579006,6.39 C41.569006,6.39 40.249006,7.41 39.439006,8.79 L39.349006,7.23 C39.349006,6.87 39.169006,6.75 38.899006,6.75 L35.779006,6.75 C35.509006,6.75 35.329006,6.93 35.329006,7.2 L35.329006,21 C35.329006,21.27 35.509006,21.45 35.779006,21.45 L39.019006,21.45 Z M65.899006,21.81 C68.839006,21.81 71.389006,20.28 71.419006,17.31 C71.449006,15.06 69.979006,13.8 68.119006,13.05 L66.049006,12.24 C65.239006,11.94 64.639006,11.52 64.639006,10.8 C64.639006,10.17 65.089006,9.63 66.049006,9.63 C66.919006,9.63 67.759006,10.05 68.719006,10.86 C68.989006,11.07 69.199006,11.1 69.409006,10.86 L70.729006,9.27 C70.879006,9.09 70.939006,8.85 70.759006,8.64 C69.529006,7.17 67.759006,6.39 65.839006,6.39 C63.109006,6.39 60.709006,8.01 60.709006,10.83 C60.709006,12.87 62.029006,14.1 63.919006,14.85 L65.779006,15.6 C66.859006,16.05 67.309006,16.41 67.309006,17.13 C67.309006,17.97 66.649006,18.36 65.659006,18.36 C64.519006,18.36 63.499006,17.85 62.269006,16.92 C62.029006,16.74 61.759006,16.68 61.519006,17.04 L60.469006,18.51 C60.259006,18.84 60.229006,19.17 60.409006,19.38 C61.579006,20.76 63.439006,21.81 65.899006,21.81 Z M80.209006,21.81 C81.199006,21.81 82.699006,21.63 82.699006,20.94 L82.699006,18.75 C82.699006,18.45 82.489006,18.3 82.159006,18.33 C81.799006,18.36 81.499006,18.36 81.229006,18.36 C80.449006,18.36 79.939006,17.94 79.939006,17.07 L79.939006,9.96 L82.249006,9.96 C82.519006,9.96 82.699006,9.78 82.699006,9.51 L82.699006,7.2 C82.699006,6.93 82.519006,6.75 82.249006,6.75 L79.939006,6.75 L79.939006,3.3 C79.939006,3.03 79.759006,2.85 79.489006,2.85 L76.219006,2.85 C75.949006,2.85 75.769006,3.03 75.769006,3.3 L75.769006,6.75 L73.909006,6.75 C73.639006,6.75 73.459006,6.93 73.459006,7.2 L73.459006,9.51 C73.459006,9.78 73.639006,9.96 73.909006,9.96 L75.769006,9.96 L75.769006,17.52 C75.769006,20.73 77.869006,21.81 80.209006,21.81 Z M91.579006,21.81 C93.769006,21.81 95.359006,20.88 96.379006,19.38 L96.439006,21 C96.439006,21.27 96.619006,21.45 96.889006,21.45 L99.799006,21.45 C100.069006,21.45 100.279006,21.27 100.279006,21 L100.279006,7.2 C100.279006,6.93 100.099006,6.75 99.829006,6.75 L96.889006,6.75 C96.619006,6.75 96.439006,6.93 96.439006,7.2 L96.379006,8.82 C95.389006,7.29 93.799006,6.39 91.579006,6.39 C87.439006,6.39 84.589006,9.75 84.589006,14.1 C84.589006,18.48 87.439006,21.81 91.579006,21.81 Z M92.449006,18.03 C90.259006,18.03 88.639006,16.47 88.639006,14.1 C88.639006,11.76 90.259006,10.17 92.449006,10.17 C94.639006,10.17 96.169006,11.73 96.169006,14.1 C96.169006,16.47 94.639006,18.03 92.449006,18.03 Z M110.869006,21.81 C113.239006,21.81 115.249006,20.79 116.509006,19.17 C116.689006,18.96 116.629006,18.72 116.449006,18.54 L114.649006,16.77 C114.409006,16.53 114.079006,16.56 113.869006,16.77 C113.059006,17.58 112.189006,18 111.049006,18 C108.619006,18 107.089006,16.2 107.089006,14.04 C107.089006,11.88 108.619006,10.2 110.959006,10.2 C112.159006,10.2 113.029006,10.62 113.839006,11.43 C114.049006,11.64 114.379006,11.67 114.619006,11.43 L116.419006,9.66 C116.599006,9.48 116.659006,9.24 116.479006,9.03 C115.219006,7.41 113.209006,6.39 110.779006,6.39 C106.369006,6.39 103.099006,9.69 103.099006,14.04 C103.099006,18.45 106.399006,21.81 110.869006,21.81 Z M123.139006,21.45 C123.409006,21.45 123.589006,21.27 123.589006,21 L123.589006,17.88 L125.419006,15.81 L129.379006,21.18 C129.529006,21.39 129.679006,21.45 129.919006,21.45 L133.399006,21.45 C133.759006,21.45 133.879006,21.21 133.669006,20.91 L127.909006,12.96 L132.889006,7.29 C133.129006,6.99 133.039006,6.75 132.649006,6.75 L128.959006,6.75 C128.749006,6.75 128.569006,6.81 128.419006,6.99 L123.589006,12.69 L123.589006,0.45 C123.589006,0.18 123.409006,7.28306304e-14 123.139006,7.28306304e-14 L119.869006,7.28306304e-14 C119.599006,7.28306304e-14 119.419006,0.18 119.419006,0.45 L119.419006,21 C119.419006,21.27 119.599006,21.45 119.869006,21.45 L123.139006,21.45 Z" />
    <path fill="#FF4C1D"
      d="M25.72508,43.6625734 C28.956905,43.6625734 31.5927907,39.3076319 31.5927907,35.2277393 C31.5927907,34.2879887 31.1572966,32.9356648 29.6903689,32.9356648 C29.1631918,32.9356648 28.7276976,33.1648722 28.5214109,33.5086834 C28.5443316,33.990019 28.6360146,34.7464036 28.6360146,35.2965015 C28.6360146,37.1530818 27.87963,40.9579255 26.6189891,40.9579255 C26.2980986,40.9579255 26.0230497,40.6599558 25.9772082,40.0410957 C27.2607699,38.3908021 27.7879471,36.4883802 27.7879471,35.4569467 C27.7879471,34.4713547 27.3524529,33.7149701 26.1834949,33.7149701 C24.8540917,33.7149701 23.2496396,36.6488255 23.2496396,39.3534734 C23.2496396,39.6972845 23.2496396,40.0410957 23.2725603,40.2015409 C22.9058284,40.5224313 22.401572,40.5682728 22.1723645,40.5682728 C21.8056326,40.5682728 21.5764252,40.3161446 21.5764252,39.6056016 C21.5764252,37.9553079 23.0433528,34.9526903 24.5332013,33.3940797 C24.556122,33.2794759 24.556122,33.1648722 24.556122,33.0502685 C24.556122,32.2709632 24.0977071,31.6521031 22.8829076,31.6521031 C21.0721688,31.6521031 19.3760337,33.0273477 19.3531129,34.4484339 C19.3531129,34.8610073 19.4218751,35.3652637 19.8573693,35.7319957 C18.7342528,37.3593685 18.0237097,38.7804547 18.0237097,40.5911936 C18.0237097,42.6540606 19.1468262,43.5021282 20.7512783,43.5021282 C21.8285534,43.5021282 22.9287491,42.9291096 23.7768167,42.1268835 C24.1664693,43.2041585 24.831171,43.6625734 25.72508,43.6625734 Z M37.3688184,31.6062616 C38.4690142,30.2539376 38.9045084,29.3600286 38.9045084,28.8099307 C38.9045084,28.0993876 37.8730748,27.0908748 36.956245,27.0908748 C36.2227812,27.0908748 35.8331285,27.7555764 35.8331285,29.6121567 C35.8331285,30.94156 36.4749094,31.6062616 37.3688184,31.6062616 Z M33.8619445,43.5479697 C35.970653,43.5479697 39.6150515,39.6743638 39.6150515,38.2303569 C39.6150515,37.771942 39.1566366,37.40521 38.7211424,37.40521 C37.1854525,39.5826808 36.154019,40.3161446 35.8331285,40.3161446 C35.6268418,40.3161446 35.5122381,40.2244617 35.5122381,39.9723335 C35.5122381,39.4451563 35.8102078,38.7116925 36.4519886,37.1301611 C36.8645621,36.1674898 37.2542147,35.2048185 37.2542147,34.6088792 C37.2542147,33.7149701 37.1625317,33.1419515 36.1081775,33.1419515 C34.6870913,33.1419515 32.647145,35.5486297 32.647145,36.9009536 C32.647145,37.3593685 32.6929865,37.8865457 32.8763524,38.3220398 C32.3033338,39.743126 32.0512056,40.6828766 32.0512056,41.6913893 C32.0512056,42.9520303 32.5096205,43.5479697 33.8619445,43.5479697 Z M41.0590584,43.6396527 C43.6949441,43.6396527 47.201818,39.5368393 47.201818,38.1845154 C47.201818,37.7261005 46.7204824,37.40521 46.2849882,37.40521 C44.7263776,39.6056016 43.1448462,40.7057973 42.2050956,40.7057973 C41.72376,40.7057973 41.5862355,40.4536691 41.5862355,39.9035712 C41.5862355,39.5597601 41.7696015,38.2761983 42.3884616,35.7549164 C43.0531632,35.8695201 43.5344988,35.8924409 44.061676,35.8924409 C44.8180606,35.8924409 45.3910792,35.2277393 45.3910792,34.356751 C45.3910792,34.0129398 45.230634,33.6003664 44.955585,33.3940797 C44.6576153,33.4628419 43.6949441,33.5316041 42.984401,33.5545249 C43.2961231,32.5826853 43.6151799,31.8162156 43.885828,31.2008394 L44.0419619,30.8493107 C44.3657334,30.125068 44.5888531,29.637828 44.5888531,29.2683456 C44.5888531,28.7411684 44.1992004,28.511961 43.6949441,28.511961 C42.1592541,28.511961 40.9444547,30.666511 39.7984174,33.6691286 C38.8586669,33.6920494 38.3544105,34.3338302 38.3544105,35.0443733 C38.3544105,35.5486297 38.7440631,35.5944712 39.202478,35.6403127 C38.3314897,38.5512473 38.1022823,39.9494127 38.1022823,40.6141143 C38.1022823,42.7228229 39.294161,43.6396527 41.0590584,43.6396527 Z M51.6713633,43.6854942 C53.7800718,43.6854942 57.6765985,39.6743638 57.6765985,38.2303569 C57.6765985,37.771942 57.2181836,37.4739723 56.7826894,37.4739723 C55.292841,39.6056016 53.8717548,40.7287181 53.4591814,40.7287181 C53.2528947,40.7287181 53.138291,40.6370351 53.138291,40.3849069 C53.138291,39.8118883 53.8946756,37.9553079 54.2843282,36.9467951 C54.6281394,36.0758068 54.8344261,35.3652637 54.8344261,34.6547206 C54.8344261,33.8524946 54.3760112,33.3023967 53.5050229,33.3023967 C52.6111138,33.3023967 51.1900277,34.0358605 49.539734,35.5486297 L50.0898319,33.3940797 C51.87765,30.4373036 52.3819064,29.1079004 52.3819064,28.0993876 C52.3819064,26.9304296 51.87765,26.4720147 50.892058,26.4720147 C47.9582026,26.4720147 47.0184521,30.0934924 46.124543,38.4595643 C45.5515244,39.4451563 45.3681584,40.2703032 45.3681584,40.9808462 C45.3910792,42.172725 46.3766712,43.3875245 47.7060744,43.3875245 C48.1644893,43.3875245 48.554142,43.2958415 48.7604287,43.066634 C48.7833494,40.9350048 48.9437947,39.2159489 49.1730021,37.588576 C49.7918622,37.0613989 50.3419601,36.8092707 50.7316128,36.8092707 C50.983741,36.8092707 51.0525032,36.9926366 51.0525032,37.1760026 C51.0525032,37.680259 49.8606244,40.3161446 49.8606244,41.8289138 C49.8606244,43.0895548 50.3190393,43.6854942 51.6713633,43.6854942 Z M67.1428661,47.7883075 C70.0767215,47.7883075 72.2312715,46.3213798 73.8586444,43.158317 C77.0904695,41.8518346 79.0845743,39.4909978 79.0845743,38.2074361 C79.0845743,37.7490212 78.6949216,37.4739723 78.2594275,37.4739723 C77.2050732,39.1242659 76.0819567,40.0869372 74.8213157,40.7057973 C75.87567,38.0240701 77.1133902,32.8439818 77.1133902,30.3456206 C77.1133902,27.8701801 76.1277982,26.7012221 73.9732481,26.7012221 C70.03088,26.7012221 66.9595002,31.3541334 66.9595002,34.0129398 C66.9595002,35.3652637 67.601281,36.2591728 68.6556353,36.2591728 C68.9077635,36.2591728 69.1828125,36.2133313 69.4807821,36.0987276 C69.7787518,34.1275435 71.2686002,30.2539376 72.6667657,30.2539376 C72.9647354,30.2539376 73.0564183,30.5519073 73.0564183,31.0103222 C73.0564183,32.7981403 71.9333018,38.2303569 70.7872646,41.2329744 C69.3661784,41.1412915 66.2947986,40.3849069 64.6445049,39.651443 C64.6445049,38.9179792 64.3236145,38.3449606 63.6130714,38.3449606 C62.1919852,38.3449606 60.7708991,39.3993148 60.7708991,41.989359 C60.7708991,45.1295011 63.3609432,47.7883075 67.1428661,47.7883075 Z M67.7388055,44.8773729 C66.3177193,44.8773729 65.1258406,43.6854942 64.6903464,41.9205968 C66.0885119,42.5394569 68.6327146,43.0437133 70.0767215,43.0895548 C69.5037029,44.2126713 68.7243976,44.8773729 67.7388055,44.8773729 Z M83.783327,43.3646037 C85.4336206,43.3646037 89.2384643,39.6743638 89.2384643,38.1845154 C89.2384643,37.771942 88.8717324,37.4739723 88.3903967,37.4739723 C86.923469,39.5368393 85.7315903,40.4078276 85.2731754,40.4078276 C85.0898095,40.4078276 84.9981265,40.3390654 84.9981265,39.8806505 C84.9981265,39.2847111 85.2960962,37.8407042 86.0983222,34.9526903 C86.2816882,34.3109095 86.3504504,33.7378908 86.3504504,33.4399212 C86.3504504,32.6376951 85.5023829,31.5833408 83.9437722,31.5833408 C83.6228818,31.5833408 83.3249121,31.6750238 83.1415461,31.8813105 L83.0727839,33.2107137 C82.9581802,33.09611 82.797735,33.0502685 82.4768445,33.0502685 C80.18477,33.0502685 77.3425977,36.6488255 77.3425977,40.0869372 C77.3425977,42.172725 78.3052689,43.25 79.6117514,43.25 C80.4139775,43.25 81.4683317,42.6769814 82.2017956,40.5911936 C82.1559541,40.9350048 82.1330334,41.2329744 82.1330334,41.4851026 C82.1330334,42.9520303 82.7748142,43.3646037 83.783327,43.3646037 Z M81.3078865,40.0410957 C80.9869961,40.0410957 80.7119472,39.9494127 80.7119472,39.1013452 C80.7119472,37.3364478 81.8121429,35.434026 82.9581802,34.7005621 L82.2247163,39.4680771 C81.9496674,39.8118883 81.628777,40.0410957 81.3078865,40.0410957 Z M90.2011356,43.7313356 C92.2640026,43.7313356 94.6248394,42.6540606 94.6248394,39.8806505 C94.6248394,38.2074361 93.3183569,36.3050143 93.3183569,35.2735808 C93.3183569,34.8610073 93.5704851,34.7234829 94.0518207,34.7234829 C94.4185527,34.7234829 94.8311261,34.8151659 95.2666202,34.9985318 C95.5416692,34.7234829 95.7479559,34.2421472 95.7479559,33.7608116 C95.7479559,32.6606158 94.9686505,32.0875972 93.6392473,32.0875972 C91.5534595,32.0875972 89.9948489,33.4170004 89.9948489,35.342343 C89.9948489,36.7634292 91.3242521,39.5368393 91.3242521,40.7057973 C91.3242521,41.09545 91.0721239,41.2329744 90.8429164,41.2329744 C90.3157393,41.2329744 89.536434,40.5453521 89.353068,39.5368393 C89.7427207,39.1013452 89.9490074,38.757534 89.9490074,38.2761983 C89.9490074,37.7031797 89.3072265,36.6717462 88.5050005,36.6717462 C87.3818839,36.6717462 87.015152,38.8950585 87.015152,40.2473824 C87.015152,42.5165362 88.4133175,43.7313356 90.2011356,43.7313356 Z M98.7964149,43.4562867 C100.400867,43.4562867 101.615667,42.5852984 102.715862,41.09545 C102.967991,41.2558952 103.220119,41.3246574 103.632692,41.3246574 C105.580955,41.3246574 107.116645,39.1701074 107.116645,38.2074361 C107.116645,37.7261005 106.63531,37.3822893 106.222736,37.3822893 C105.466352,38.5970888 104.80165,39.1242659 104.136949,39.1242659 C103.907741,39.1242659 103.747296,39.0325829 103.678534,38.9638207 C104.159869,37.7031797 104.389077,36.8092707 104.389077,35.7090749 C104.389077,34.6776414 103.930662,33.4399212 102.990911,33.4399212 C102.624179,33.4399212 102.417893,33.5316041 102.188685,33.7608116 C102.165764,33.004427 101.432301,32.7522988 100.836361,32.7522988 C98.4067623,32.7522988 95.8854803,36.2820935 95.8854803,40.0869372 C95.8854803,42.3331702 97.169042,43.4562867 98.7964149,43.4562867 Z M99.9653729,40.6828766 C99.5527995,40.6828766 99.1402261,40.3619861 99.1402261,39.2388696 C99.1402261,37.3593685 100.309184,35.1360563 101.73027,34.4713547 C101.386459,35.1360563 101.226014,36.3508558 101.226014,37.1301611 C101.226014,37.7490212 101.294776,38.4137228 101.478142,39.1242659 C101.065569,40.1556994 100.515471,40.6828766 99.9653729,40.6828766 Z M111.952923,43.5479697 C114.061631,43.5479697 117.935237,39.6743638 117.935237,38.2303569 C117.935237,37.771942 117.476822,37.4739723 117.041328,37.4739723 C115.620242,39.5139186 114.176235,40.6828766 113.71782,40.6828766 C113.511533,40.6828766 113.396929,40.5911936 113.396929,40.3390654 C113.396929,39.7660468 114.130393,38.1386739 114.542967,37.1301611 C115.024302,36.0299653 115.207668,35.2277393 115.207668,34.6088792 C115.207668,33.7149701 114.680491,33.0273477 113.626137,33.0273477 C112.617624,33.0273477 111.036093,34.0587813 109.362878,36.9467951 C109.981738,35.8236786 110.279708,34.2192265 110.279708,33.6462079 C110.279708,32.9585855 110.073421,32.6835366 109.294116,32.6835366 C107.87303,32.6835366 105.833084,35.0902148 105.833084,36.4425387 C105.833084,36.9009536 105.878925,37.4281308 106.062291,37.8636249 C105.672638,38.9179792 105.489272,39.8577297 105.489272,40.7287181 C105.512193,42.1039628 106.451944,43.3187622 107.735505,43.3187622 C108.262683,43.3187622 108.423128,43.25 108.652335,43.0207926 C108.721098,41.4621819 108.858622,40.4307484 109.179512,38.665851 C110.073421,37.4281308 110.829806,37.0843196 111.036093,37.0843196 C111.219459,37.0843196 111.311142,37.1760026 111.311142,37.3593685 C111.311142,37.8636249 110.142184,40.1786202 110.142184,41.6913893 C110.142184,42.9520303 110.600599,43.5479697 111.952923,43.5479697 Z" />
  </g>
</svg>